<?xml version="1.0" standalone="no"?>
<!DOCTYPE svg PUBLIC "-//W3C//DTD SVG 20010904//EN"
 "http://www.w3.org/TR/2001/REC-SVG-20010904/DTD/svg10.dtd">
<svg version="1.0" xmlns="http://www.w3.org/2000/svg"
 width="300.000000pt" height="171.000000pt" viewBox="0 0 300.000000 171.000000"
 preserveAspectRatio="xMidYMid meet">
<metadata>
Created by potrace 1.10, written by Peter Selinger 2001-2011
</metadata>
<g transform="translate(0.000000,171.000000) scale(0.100000,-0.100000)"
fill="#000000" stroke="none">
<path d="M2224 1568 c-4 -7 -15 -44 -24 -82 -14 -61 -20 -73 -48 -89 l-33 -20
-44 32 c-24 17 -48 31 -54 31 -6 0 -33 -33 -61 -72 -42 -59 -51 -79 -48 -105
2 -18 -1 -33 -6 -33 -6 0 -65 20 -133 45 -139 52 -199 70 -260 80 -68 11 -50
-9 20 -22 59 -12 93 -24 330 -122 153 -63 289 -96 540 -128 26 -3 47 -9 47
-13 0 -3 -11 -17 -24 -29 -31 -29 -40 -65 -25 -94 17 -31 35 -44 107 -78 l64
-30 -7 -39 c-4 -26 -3 -40 4 -40 6 0 11 19 11 44 0 44 -1 45 -69 91 -97 64
-102 93 -26 129 50 24 61 50 33 76 -30 28 -70 37 -234 55 -145 16 -287 41
-315 56 -35 18 -32 58 8 120 21 32 42 59 46 59 5 0 28 -14 53 -30 l44 -31 45
26 c46 28 48 31 72 140 l9 40 59 0 60 0 20 -78 c19 -73 23 -79 62 -103 39 -23
44 -24 71 -10 16 8 34 22 41 30 23 27 40 18 80 -44 l39 -60 -24 -71 c-23 -68
-23 -72 -8 -122 9 -29 18 -57 19 -64 2 -7 27 -24 55 -38 l51 -26 -3 -87 -3
-87 -49 -27 c-47 -25 -51 -30 -68 -92 l-18 -66 24 -66 25 -67 -35 -54 c-19
-29 -40 -56 -48 -59 -7 -3 -34 9 -60 26 l-46 31 -27 -19 c-16 -10 -35 -21 -44
-25 -11 -4 -23 -32 -35 -81 l-18 -76 -61 0 -61 0 -18 73 c-16 68 -20 74 -62
99 l-45 28 -48 -35 -49 -35 -28 45 -29 45 -787 0 -788 0 0 -21 c0 -21 0 -21
282 -14 156 4 497 10 758 15 l475 8 60 -64 60 -63 47 35 46 34 35 -20 c31 -19
36 -28 47 -86 7 -36 19 -72 27 -80 19 -19 136 -19 155 0 8 7 20 43 28 80 12
58 18 69 48 86 l34 20 41 -28 c23 -15 47 -31 53 -35 12 -7 73 66 109 130 18
32 18 33 -5 107 -21 67 -22 79 -10 120 11 40 19 50 64 74 l51 27 0 120 0 120
-51 27 c-45 25 -53 34 -64 74 -12 43 -11 53 10 116 22 64 22 71 8 101 -21 43
-91 137 -102 137 -5 0 -31 -14 -58 -30 l-49 -31 -33 21 c-29 17 -35 29 -46 83
-19 97 -19 97 -105 97 -47 0 -77 -4 -81 -12z"/>
<path d="M1264 1279 c-157 -20 -287 -82 -415 -197 -50 -45 -51 -45 -117 -43
-185 6 -408 -71 -578 -199 -42 -32 -52 -45 -57 -77 -13 -87 21 -179 83 -220
47 -32 55 -28 25 11 -50 65 -53 137 -7 173 51 41 188 127 235 147 152 68 168
70 467 71 281 1 342 7 530 51 162 39 427 122 437 137 4 6 0 8 -10 4 -80 -30
-293 -83 -432 -106 -125 -22 -294 -32 -401 -26 -136 9 -150 15 -109 50 108 91
230 156 343 181 139 31 333 7 485 -60 53 -23 46 -11 -10 18 -73 36 -199 74
-286 86 -86 11 -95 11 -183 -1z m-384 -269 c25 -25 12 -32 -41 -24 l-42 7 22
19 c29 23 36 23 61 -2z m-165 -20 c-3 -6 -26 -10 -50 -10 -44 0 -110 -18 -172
-46 -17 -8 -35 -14 -40 -14 -26 0 -215 -114 -263 -158 -39 -36 -59 -45 -55
-24 2 9 4 23 4 29 2 35 141 123 286 183 32 13 138 40 170 43 76 7 126 6 120
-3z"/>
<path d="M585 825 c-39 -18 -55 -32 -89 -77 -30 -41 -66 -142 -66 -189 0 -26
4 -29 30 -29 27 0 30 3 30 33 0 98 67 206 141 228 51 16 119 -9 155 -56 31
-42 64 -125 64 -165 0 -16 5 -32 10 -35 14 -9 12 30 -4 90 -44 165 -161 252
-271 200z"/>
<path d="M1640 818 c-8 -13 -14 -48 -15 -82 0 -54 -2 -59 -23 -61 -17 -1 -21
2 -16 17 3 10 1 18 -4 18 -5 0 -12 -9 -15 -20 -3 -11 -13 -20 -22 -20 -13 0
-16 6 -11 25 4 14 4 25 1 25 -3 0 -10 -11 -15 -25 -13 -33 -50 -35 -43 -2 4
22 4 22 -12 2 -9 -11 -27 -21 -40 -22 -28 -2 -29 0 -14 28 24 46 -46 69 -75
25 -19 -30 -12 -63 10 -45 8 6 14 19 14 27 0 21 16 4 25 -27 7 -22 6 -23 -31
-17 -22 3 -45 7 -52 8 -8 1 -11 9 -8 22 5 20 5 20 -9 2 -15 -20 -75 -29 -80
-11 -2 5 -6 23 -10 38 -5 25 -8 27 -21 16 -10 -8 -14 -24 -12 -41 4 -26 3 -27
-25 -22 -20 3 -36 -1 -48 -12 -30 -27 -23 -34 31 -34 33 0 50 4 50 13 0 9 2 9
8 0 9 -15 399 -17 437 -3 36 14 46 43 43 125 -3 71 -4 74 -18 53z"/>
<path d="M1701 821 c-16 -29 -14 -164 2 -159 8 3 14 34 17 87 5 85 -1 107 -19
72z"/>
<path d="M2092 820 c-7 -12 -12 -54 -12 -104 l0 -85 148 1 c81 0 155 5 165 10
28 14 44 65 45 137 l1 64 -21 -21 c-16 -16 -21 -34 -22 -84 -1 -58 -3 -63 -24
-66 -21 -3 -23 0 -18 20 l6 23 -11 -22 c-7 -13 -20 -23 -31 -23 -15 0 -17 5
-13 28 l6 27 -16 -27 c-19 -33 -50 -39 -42 -8 3 11 1 20 -3 20 -5 0 -12 -9
-15 -20 -4 -11 -15 -20 -27 -20 -15 0 -19 5 -15 20 6 25 -10 27 -17 2 -4 -13
-16 -19 -37 -19 l-31 0 7 84 c7 83 1 101 -23 63z"/>
<path d="M2477 822 c-13 -14 -17 -38 -17 -90 0 -70 10 -90 28 -54 9 16 17 162
9 162 -2 0 -11 -8 -20 -18z"/>
<path d="M976 794 c-22 -22 -21 -24 19 -24 24 0 37 6 45 20 10 18 8 20 -19 20
-16 0 -37 -7 -45 -16z"/>
<path d="M1802 798 c-20 -20 -14 -28 21 -28 21 0 36 7 45 20 11 18 10 20 -21
20 -18 0 -38 -5 -45 -12z"/>
<path d="M977 712 c-36 -37 -49 -83 -27 -97 6 -3 10 -1 10 4 0 6 16 11 35 11
26 0 39 6 51 25 15 23 15 27 -6 60 -12 19 -23 35 -24 35 -1 0 -19 -17 -39 -38z
m31 -30 c2 -7 -7 -12 -23 -12 -24 0 -26 2 -15 15 14 17 31 16 38 -3z"/>
<path d="M1801 715 c-23 -21 -38 -43 -36 -53 2 -9 4 -25 4 -34 1 -10 6 -18 12
-18 5 0 7 5 4 10 -4 6 10 10 35 10 33 0 42 4 52 25 11 24 -2 78 -23 91 -4 2
-26 -11 -48 -31z m37 -33 c2 -7 -7 -12 -22 -12 -27 0 -35 15 -13 23 17 7 30 3
35 -11z"/>
<path d="M2038 694 c-5 -4 -8 -20 -8 -36 0 -23 -7 -32 -32 -42 -18 -8 -38 -12
-45 -9 -14 6 -53 -23 -53 -39 0 -12 71 -10 108 3 38 13 58 57 46 100 -5 17
-12 27 -16 23z"/>
<path d="M1233 603 c-18 -3 -40 -30 -31 -38 11 -9 70 11 79 26 10 20 3 22 -48
12z"/>
<path d="M2109 589 c-13 -25 -13 -25 24 -21 19 2 39 12 45 23 12 18 10 19 -23
17 -23 -1 -40 -9 -46 -19z"/>
<path d="M494 238 c1 -63 5 -93 14 -95 9 -4 12 19 12 91 0 74 -3 96 -14 96
-10 0 -13 -21 -12 -92z"/>
<path d="M650 241 l0 -91 210 1 210 0 0 90 c0 53 -4 89 -10 89 -6 0 -10 -33
-10 -80 l0 -80 -30 0 c-29 0 -30 1 -30 50 0 28 -4 50 -10 50 -5 0 -10 -23 -10
-51 0 -47 -2 -50 -22 -47 -19 2 -24 10 -26 41 -4 48 -26 44 -26 -4 -1 -27 -5
-35 -23 -37 -21 -3 -23 1 -23 38 0 29 -4 40 -12 37 -8 -2 -12 -18 -10 -41 3
-35 2 -36 -33 -36 l-35 0 0 50 c0 28 -4 50 -10 50 -5 0 -10 -22 -10 -50 l0
-50 -36 0 -36 0 3 77 c3 55 0 77 -8 80 -10 4 -13 -18 -13 -86z"/>
<path d="M1112 238 c2 -62 7 -93 16 -96 9 -3 12 20 12 92 0 79 -3 96 -15 96
-12 0 -15 -16 -13 -92z"/>
<path d="M1490 240 l0 -90 200 0 200 0 0 90 c0 53 -4 90 -10 90 -6 0 -10 -33
-10 -80 l0 -80 -30 0 c-27 0 -30 3 -30 33 0 64 -61 88 -104 42 -18 -20 -24
-22 -22 -9 0 9 -5 19 -11 21 -9 3 -13 -9 -13 -41 0 -45 -1 -46 -31 -46 -31 0
-31 0 -27 47 2 31 -1 48 -9 50 -9 3 -13 -10 -13 -46 0 -50 -1 -51 -30 -51
l-30 0 0 80 c0 64 -3 80 -15 80 -12 0 -15 -17 -15 -90z m281 0 c12 -7 19 -21
19 -40 0 -30 -1 -30 -55 -30 -30 0 -55 4 -55 9 0 11 55 71 65 71 3 0 15 -5 26
-10z"/>
<path d="M1346 281 c-4 -5 -20 -12 -36 -16 -33 -7 -50 -30 -50 -69 0 -34 23
-44 110 -47 l75 -2 0 58 c0 38 -4 60 -12 63 -9 2 -13 -11 -13 -47 0 -50 -1
-51 -29 -51 -30 0 -30 0 -27 55 3 52 -5 77 -18 56z m-6 -71 c0 -32 -4 -40 -19
-40 -45 0 -52 64 -8 73 12 2 23 5 25 6 1 0 2 -17 2 -39z"/>
<path d="M430 219 l0 -50 -52 3 c-49 3 -53 5 -56 31 -5 42 -24 32 -20 -10 l3
-38 73 -3 72 -3 0 61 c0 33 -4 60 -10 60 -5 0 -10 -23 -10 -51z"/>
<path d="M580 196 c0 -74 -1 -77 -27 -87 -26 -10 -27 -11 -9 -21 14 -8 22 -6
36 8 23 24 33 165 12 172 -9 3 -12 -16 -12 -72z"/>
</g>
</svg>
